  0
SECTION
  2
HEADER
  9
$MEASUREMENT
  70
  1
  9
$INSUNITS
  70
  4
  0
ENDSEC
  0
SECTION
  2
TABLES
  0
TABLE
  2
LTYPE
 70
     1
  0
LTYPE
  2
CONTINUOUS
 70
    64
  3
Ausgezogene Linie
 72
    65
 73
     0
 40
0.0
  0
ENDTAB
  0
TABLE
  2
LAYER
 70
     3
  0
LAYER
  2
Kontur
 70
    64
 62
     7
  6
CONTINUOUS
  0
LAYER
  2
Gravur
 70
    64
 62
     7
  6
CONTINUOUS
  0
LAYER
  2
Bezugspunkte
 70
    64
 62
     1
  6
CONTINUOUS
  0
ENDTAB
  0
TABLE
  2
STYLE
 70
     1
  0
STYLE
  2
TXT
 70
    64
 40
0.0
 41
1.0
 50
0.0
 71
     0
 42
3.500000
  3
TXT
  0
ENDTAB
  0
ENDSEC
  0
SECTION
  2
BLOCKS
  0
ENDSEC
  0
SECTION
  2
ENTITIES
  0
LINE
  8
Kontur
 62
   7
 39
0.100
  6
CONTINUOUS
 10
59.12000
 20
128.40000
 30
 0
 11
1.50000
 21
128.40000
  0
ARC
  8
Kontur
 62
   7
 39
0.100
  6
CONTINUOUS
 10
1.50000
 20
126.90000
 30
 0
 40
1.50000
 50
90.00000
 51
180.00000
  0
LINE
  8
Kontur
 62
   7
 39
0.100
  6
CONTINUOUS
 10
0.00000
 20
126.90000
 30
 0
 11
0.00000
 21
1.50000
  0
ARC
  8
Kontur
 62
   7
 39
0.100
  6
CONTINUOUS
 10
1.50000
 20
1.50000
 30
 0
 40
1.50000
 50
180.00000
 51
270.00000
  0
LINE
  8
Kontur
 62
   7
 39
0.100
  6
CONTINUOUS
 10
1.50000
 20
0.00000
 30
 0
 11
59.12000
 21
0.00000
  0
ARC
  8
Kontur
 62
   7
 39
0.100
  6
CONTINUOUS
 10
59.12000
 20
1.50000
 30
 0
 40
1.50000
 50
-90.00000
 51
0.00000
  0
LINE
  8
Kontur
 62
   7
 39
0.100
  6
CONTINUOUS
 10
60.62000
 20
1.50000
 30
 0
 11
60.62000
 21
126.90000
  0
ARC
  8
Kontur
 62
   7
 39
0.100
  6
CONTINUOUS
 10
59.12000
 20
126.90000
 30
 0
 40
1.50000
 50
0.00000
 51
90.00000
  0
CIRCLE
  8
Kontur
 62
   7
 39
0.100
  6
CONTINUOUS
 10
30.00000
 20
19.40000
 30
 0
 40
3.60000
  0
CIRCLE
  8
Kontur
 62
   7
 39
0.100
  6
CONTINUOUS
 10
30.00000
 20
37.70000
 30
 0
 40
3.60000
  0
CIRCLE
  8
Kontur
 62
   7
 39
0.100
  6
CONTINUOUS
 10
30.00000
 20
55.10000
 30
 0
 40
3.60000
  0
CIRCLE
  8
Kontur
 62
   7
 39
0.100
  6
CONTINUOUS
 10
30.00000
 20
74.00000
 30
 0
 40
3.60000
  0
CIRCLE
  8
Kontur
 62
   7
 39
0.100
  6
CONTINUOUS
 10
30.00000
 20
92.50000
 30
 0
 40
3.60000
  0
CIRCLE
  8
Kontur
 62
   7
 39
0.100
  6
CONTINUOUS
 10
30.00000
 20
109.40000
 30
 0
 40
3.60000
  0
CIRCLE
  8
Kontur
 62
   7
 39
0.100
  6
CONTINUOUS
 10
7.50000
 20
109.40000
 30
 0
 40
3.05000
  0
CIRCLE
  8
Kontur
 62
   7
 39
0.100
  6
CONTINUOUS
 10
7.50000
 20
92.50000
 30
 0
 40
3.05000
  0
CIRCLE
  8
Kontur
 62
   7
 39
0.100
  6
CONTINUOUS
 10
7.50000
 20
74.00000
 30
 0
 40
3.05000
  0
CIRCLE
  8
Kontur
 62
   7
 39
0.100
  6
CONTINUOUS
 10
7.50000
 20
55.10000
 30
 0
 40
3.05000
  0
CIRCLE
  8
Kontur
 62
   7
 39
0.100
  6
CONTINUOUS
 10
7.50000
 20
37.70000
 30
 0
 40
3.05000
  0
CIRCLE
  8
Kontur
 62
   7
 39
0.100
  6
CONTINUOUS
 10
7.50000
 20
19.40000
 30
 0
 40
3.05000
  0
CIRCLE
  8
Kontur
 62
   7
 39
0.100
  6
CONTINUOUS
 10
52.50000
 20
109.40000
 30
 0
 40
1.60000
  0
CIRCLE
  8
Kontur
 62
   7
 39
0.100
  6
CONTINUOUS
 10
52.50000
 20
92.50000
 30
 0
 40
3.05000
  0
CIRCLE
  8
Kontur
 62
   7
 39
0.100
  6
CONTINUOUS
 10
52.50000
 20
74.00000
 30
 0
 40
3.05000
  0
CIRCLE
  8
Kontur
 62
   7
 39
0.100
  6
CONTINUOUS
 10
52.50000
 20
55.10000
 30
 0
 40
3.05000
  0
CIRCLE
  8
Kontur
 62
   7
 39
0.100
  6
CONTINUOUS
 10
52.50000
 20
37.70000
 30
 0
 40
3.05000
  0
CIRCLE
  8
Kontur
 62
   7
 39
0.100
  6
CONTINUOUS
 10
52.50000
 20
19.40000
 30
 0
 40
3.05000
  0
ARC
  8
Kontur
 62
   7
 39
0.100
  6
CONTINUOUS
 10
5.68400
 20
3.55000
 30
 0
 40
1.20000
 50
450.00000
 51
162.69723
  0
LINE
  8
Kontur
 62
   7
 39
0.100
  6
CONTINUOUS
 10
5.68400
 20
4.75000
 30
 0
 11
9.21600
 21
4.75000
  0
ARC
  8
Kontur
 62
   7
 39
0.100
  6
CONTINUOUS
 10
9.21600
 20
3.55000
 30
 0
 40
1.20000
 50
377.30277
 51
90.00000
  0
ARC
  8
Kontur
 62
   7
 39
0.100
  6
CONTINUOUS
 10
7.45000
 20
3.00000
 30
 0
 40
3.05000
 50
342.69977
 51
17.30023
  0
ARC
  8
Kontur
 62
   7
 39
0.100
  6
CONTINUOUS
 10
9.21600
 20
2.45000
 30
 0
 40
1.20000
 50
270.00000
 51
-17.30277
  0
LINE
  8
Kontur
 62
   7
 39
0.100
  6
CONTINUOUS
 10
9.21600
 20
1.25000
 30
 0
 11
5.68400
 21
1.25000
  0
ARC
  8
Kontur
 62
   7
 39
0.100
  6
CONTINUOUS
 10
5.68400
 20
2.45000
 30
 0
 40
1.20000
 50
197.30277
 51
-90.00000
  0
ARC
  8
Kontur
 62
   7
 39
0.100
  6
CONTINUOUS
 10
7.45000
 20
3.00000
 30
 0
 40
3.05000
 50
162.69977
 51
-162.69977
  0
ARC
  8
Kontur
 62
   7
 39
0.100
  6
CONTINUOUS
 10
5.68400
 20
125.95000
 30
 0
 40
1.20000
 50
450.00000
 51
162.69723
  0
LINE
  8
Kontur
 62
   7
 39
0.100
  6
CONTINUOUS
 10
5.68400
 20
127.15000
 30
 0
 11
9.21600
 21
127.15000
  0
ARC
  8
Kontur
 62
   7
 39
0.100
  6
CONTINUOUS
 10
9.21600
 20
125.95000
 30
 0
 40
1.20000
 50
377.30277
 51
90.00000
  0
ARC
  8
Kontur
 62
   7
 39
0.100
  6
CONTINUOUS
 10
7.45000
 20
125.40000
 30
 0
 40
3.05000
 50
342.69977
 51
17.30023
  0
ARC
  8
Kontur
 62
   7
 39
0.100
  6
CONTINUOUS
 10
9.21600
 20
124.85000
 30
 0
 40
1.20000
 50
270.00000
 51
-17.30277
  0
LINE
  8
Kontur
 62
   7
 39
0.100
  6
CONTINUOUS
 10
9.21600
 20
123.65000
 30
 0
 11
5.68400
 21
123.65000
  0
ARC
  8
Kontur
 62
   7
 39
0.100
  6
CONTINUOUS
 10
5.68400
 20
124.85000
 30
 0
 40
1.20000
 50
197.30277
 51
-90.00000
  0
ARC
  8
Kontur
 62
   7
 39
0.100
  6
CONTINUOUS
 10
7.45000
 20
125.40000
 30
 0
 40
3.05000
 50
162.69977
 51
-162.69977
  0
ARC
  8
Kontur
 62
   7
 39
0.100
  6
CONTINUOUS
 10
51.40400
 20
3.55000
 30
 0
 40
1.20000
 50
450.00000
 51
162.69723
  0
LINE
  8
Kontur
 62
   7
 39
0.100
  6
CONTINUOUS
 10
51.40400
 20
4.75000
 30
 0
 11
54.93600
 21
4.75000
  0
ARC
  8
Kontur
 62
   7
 39
0.100
  6
CONTINUOUS
 10
54.93600
 20
3.55000
 30
 0
 40
1.20000
 50
377.30277
 51
90.00000
  0
ARC
  8
Kontur
 62
   7
 39
0.100
  6
CONTINUOUS
 10
53.17000
 20
3.00000
 30
 0
 40
3.05000
 50
342.69977
 51
17.30023
  0
ARC
  8
Kontur
 62
   7
 39
0.100
  6
CONTINUOUS
 10
54.93600
 20
2.45000
 30
 0
 40
1.20000
 50
270.00000
 51
-17.30277
  0
LINE
  8
Kontur
 62
   7
 39
0.100
  6
CONTINUOUS
 10
54.93600
 20
1.25000
 30
 0
 11
51.40400
 21
1.25000
  0
ARC
  8
Kontur
 62
   7
 39
0.100
  6
CONTINUOUS
 10
51.40400
 20
2.45000
 30
 0
 40
1.20000
 50
197.30277
 51
-90.00000
  0
ARC
  8
Kontur
 62
   7
 39
0.100
  6
CONTINUOUS
 10
53.17000
 20
3.00000
 30
 0
 40
3.05000
 50
162.69977
 51
-162.69977
  0
ARC
  8
Kontur
 62
   7
 39
0.100
  6
CONTINUOUS
 10
51.40400
 20
125.95000
 30
 0
 40
1.20000
 50
450.00000
 51
162.69723
  0
LINE
  8
Kontur
 62
   7
 39
0.100
  6
CONTINUOUS
 10
51.40400
 20
127.15000
 30
 0
 11
54.93600
 21
127.15000
  0
ARC
  8
Kontur
 62
   7
 39
0.100
  6
CONTINUOUS
 10
54.93600
 20
125.95000
 30
 0
 40
1.20000
 50
377.30277
 51
90.00000
  0
ARC
  8
Kontur
 62
   7
 39
0.100
  6
CONTINUOUS
 10
53.17000
 20
125.40000
 30
 0
 40
3.05000
 50
342.69977
 51
17.30023
  0
ARC
  8
Kontur
 62
   7
 39
0.100
  6
CONTINUOUS
 10
54.93600
 20
124.85000
 30
 0
 40
1.20000
 50
270.00000
 51
-17.30277
  0
LINE
  8
Kontur
 62
   7
 39
0.100
  6
CONTINUOUS
 10
54.93600
 20
123.65000
 30
 0
 11
51.40400
 21
123.65000
  0
ARC
  8
Kontur
 62
   7
 39
0.100
  6
CONTINUOUS
 10
51.40400
 20
124.85000
 30
 0
 40
1.20000
 50
197.30277
 51
-90.00000
  0
ARC
  8
Kontur
 62
   7
 39
0.100
  6
CONTINUOUS
 10
53.17000
 20
125.40000
 30
 0
 40
3.05000
 50
162.69977
 51
-162.69977
  0
ENDSEC
  0
EOF
